<?xml version="1.0" ?><!DOCTYPE svg  PUBLIC '-//W3C//DTD SVG 1.1//EN'  'http://www.w3.org/Graphics/SVG/1.1/DTD/svg11.dtd'><svg height="24px" style="enable-background:new 0 0 29.042 24;" version="1.1" viewBox="0 0 29.042 24" width="29.042px" xml:space="preserve" xmlns="http://www.w3.org/2000/svg" xmlns:xlink="http://www.w3.org/1999/xlink"><g id="Internet_2"/><g id="Linkedin"><g><path d="M25.021,0h-21c-0.827,0-1.5,0.673-1.5,1.5v21c0,0.827,0.673,1.5,1.5,1.5h21c0.828,0,1.5-0.673,1.5-1.5v-21    C26.521,0.673,25.849,0,25.021,0z M25.521,22.5c0,0.275-0.225,0.5-0.5,0.5h-21c-0.276,0-0.5-0.225-0.5-0.5v-21    c0-0.276,0.224-0.5,0.5-0.5h21c0.275,0,0.5,0.224,0.5,0.5V22.5z"/><path d="M10.021,9h-4c-0.276,0-0.5,0.224-0.5,0.5v11c0,0.276,0.224,0.5,0.5,0.5h4c0.276,0,0.5-0.224,0.5-0.5v-11    C10.521,9.224,10.298,9,10.021,9z M9.521,20h-3V10h3V20z"/><path d="M8.021,2.5c-1.378,0-2.5,1.122-2.5,2.5s1.122,2.5,2.5,2.5s2.5-1.122,2.5-2.5S9.4,2.5,8.021,2.5z M8.021,6.5    c-0.827,0-1.5-0.673-1.5-1.5s0.673-1.5,1.5-1.5s1.5,0.673,1.5,1.5S8.849,6.5,8.021,6.5z"/><path d="M19.021,8.999c-1.643,0-2.799,0.362-3.5,0.681V9.5c0-0.276-0.223-0.5-0.5-0.5h-3c-0.276,0-0.5,0.224-0.5,0.5v11    c0,0.276,0.224,0.5,0.5,0.5h3c0.277,0,0.5-0.224,0.5-0.5v-6c0-0.827,0.674-1.5,1.5-1.5c0.828,0,1.5,0.673,1.5,1.5v6    c0,0.276,0.225,0.5,0.5,0.5h4c0.277,0,0.5-0.224,0.5-0.5v-7C23.521,11.019,21.503,8.999,19.021,8.999z M22.521,20h-3v-5.5    c0-1.379-1.121-2.5-2.5-2.5s-2.5,1.121-2.5,2.5V20h-2V10h2v0.541c0,0.192,0.111,0.366,0.284,0.449    c0.173,0.083,0.379,0.059,0.53-0.06c0.012-0.009,1.199-0.931,3.686-0.931c1.93,0,3.5,1.57,3.5,3.501V20z"/></g></g></svg>